<?xml version="1.0" encoding="UTF-8"?>
<!DOCTYPE svg PUBLIC "-//W3C//DTD SVG 1.1//EN" "http://www.w3.org/Graphics/SVG/1.1/DTD/svg11.dtd">
<!-- Creator: CorelDRAW -->
<svg xmlns="http://www.w3.org/2000/svg" xml:space="preserve" width="30px" height="30px" style="shape-rendering:geometricPrecision; text-rendering:geometricPrecision; image-rendering:optimizeQuality; fill-rule:evenodd; clip-rule:evenodd"
viewBox="0 0 30 30"
 xmlns:xlink="http://www.w3.org/1999/xlink">
 <defs>
  <style type="text/css">
   <![CDATA[
    .fil0 {fill:#4D4D4D}
   ]]>
  </style>
 </defs>
 <g id="Layer_x0020_1">
  <metadata id="CorelCorpID_0Corel-Layer"/>
  <path class="fil0" d="M4.99724 11.0398c1.65945,0.0106299 3.0248,0.0188976 4.1622,0.0248031l0 3.07441 -5.01732 0.0377953 9.3248 8.69764 10.2744 -8.75906 -5.83465 0 0 -3.07323c0.41811,-0.0023622 0.903543,-0.0023622 1.48346,-0.0023622l0 -0.498425c0,-0.584646 0.539764,-1.06299 1.20118,-1.06299l6.13228 0c0.660236,0 1.20118,0.478346 1.20118,1.06299l0 2.33504 0 2.18622 0 9.28465c0,1.00984 -0.934252,1.83661 -2.07402,1.83661l-20.8535 0c-1.14094,0 -2.07402,-0.826772 -2.07402,-1.83661l0 -11.4709c0,-1.00984 0.933071,-1.84488 2.07402,-1.83661z"/>
  <path class="fil0" d="M13.4315 22.0878l-8.01732 -7.33937 4.43504 0 0 -6.79724c0.413386,-4.93701 4.8685,-7.80591 10.0642,-6.14409 2.04685,0.654331 3.75236,3.02126 3.75236,3.02126 0,0 -1.67717,-1.08307 -3.49606,-0.57874 -1.82008,0.50315 -2.75787,1.43504 -2.87244,2.79449 -0.113386,1.35945 0,7.70433 0,7.70433l4.71969 0 -8.58543 7.33937z"/>
 </g>
</svg>
