<?xml version="1.0" encoding="utf-8"?>
<!-- Generator: Adobe Illustrator 16.0.0, SVG Export Plug-In . SVG Version: 6.00 Build 0)  -->
<!DOCTYPE svg PUBLIC "-//W3C//DTD SVG 1.1//EN" "http://www.w3.org/Graphics/SVG/1.1/DTD/svg11.dtd">
<svg version="1.1" id="Layer_1" xmlns="http://www.w3.org/2000/svg" xmlns:xlink="http://www.w3.org/1999/xlink" x="0px" y="0px"
	 width="16px" height="18px" viewBox="0 0 16 18" enable-background="new 0 0 16 18" xml:space="preserve">
<g>
	<path fill="#010101" d="M10.714,2.391c0,1.317-1.071,2.388-2.388,2.388c-1.32,0-2.391-1.071-2.391-2.388
		C5.935,1.071,7.006,0,8.326,0S10.714,1.071,10.714,2.391L10.714,2.391z M8.329,14.669c-0.735-0.004-1.333,0.592-1.335,1.329
		c0,0.733,0.592,1.332,1.327,1.332c0.738,0.003,1.334-0.593,1.336-1.327C9.658,15.265,9.064,14.671,8.329,14.669L8.329,14.669z
		 M16,9.194c0-0.48-0.389-0.868-0.869-0.868s-0.872,0.388-0.872,0.868c0,0.479,0.392,0.871,0.872,0.871
		C15.609,10.065,16,9.675,16,9.194L16,9.194z M3.04,9.194c0-0.84-0.681-1.521-1.519-1.521C0.68,7.674,0,8.354,0,9.194
		c0,0.84,0.68,1.52,1.521,1.52C2.36,10.714,3.04,10.034,3.04,9.194L3.04,9.194z M13.622,3.896c-0.269-0.269-0.701-0.266-0.968,0
		c-0.27,0.269-0.27,0.705,0,0.971c0.267,0.269,0.699,0.269,0.968,0C13.889,4.601,13.889,4.166,13.622,3.896L13.622,3.896z
		 M4.619,12.906c-0.611-0.608-1.599-0.608-2.209-0.003c-0.608,0.607-0.611,1.596,0,2.203c0.61,0.608,1.599,0.611,2.209,0
		C5.23,14.503,5.23,13.515,4.619,12.906L4.619,12.906z M13.775,14.644c0.35-0.354,0.35-0.92-0.002-1.271
		c-0.348-0.35-0.914-0.35-1.264,0.002c-0.35,0.35-0.35,0.918,0,1.27C12.859,14.991,13.426,14.991,13.775,14.644L13.775,14.644z
		 M4.657,5.524c0.631-0.628,0.631-1.653,0-2.282c-0.628-0.631-1.65-0.631-2.279,0c-0.631,0.629-0.631,1.651,0,2.282
		C3.006,6.155,4.028,6.155,4.657,5.524L4.657,5.524z"/>
</g>
</svg>
