<?xml version="1.0" encoding="utf-8"?>
<!-- Generator: Adobe Illustrator 13.0.0, SVG Export Plug-In . SVG Version: 6.00 Build 14948)  -->
<!DOCTYPE svg PUBLIC "-//W3C//DTD SVG 1.1//EN" "http://www.w3.org/Graphics/SVG/1.1/DTD/svg11.dtd">
<svg version="1.1" id="Layer_1" xmlns="http://www.w3.org/2000/svg" xmlns:xlink="http://www.w3.org/1999/xlink" x="0px" y="0px"
	 width="19.333px" height="38.667px" viewBox="0 0 19.333 38.667" enable-background="new 0 0 19.333 38.667" xml:space="preserve">
<path fill-rule="evenodd" clip-rule="evenodd" fill="#666666" d="M19.333,20.945V14.5c0-0.89-0.721-1.611-1.611-1.611
	c-0.887,0-1.61,0.721-1.61,1.611v6.445c0,0.261-0.072,6.444-6.444,6.444c-6.206,0-6.438-5.793-6.445-6.444V14.5
	c0-0.89-0.72-1.611-1.611-1.611C0.724,12.889,0,13.61,0,14.5v6.445c0,3.093,1.744,8.729,8.056,9.556v4.944H1.611
	c-0.887,0-1.611,0.72-1.611,1.61s0.724,1.611,1.611,1.611h16.11c0.891,0,1.611-0.721,1.611-1.611s-0.721-1.61-1.611-1.61h-6.444
	v-4.944C17.593,29.674,19.333,24.038,19.333,20.945"/>
<path fill-rule="evenodd" clip-rule="evenodd" fill="#666666" d="M9.667,25.778c2.672,0,4.833-2.165,4.833-4.833v-6.444H4.837v-1.61
	H14.5V4.832C14.5,2.164,12.339,0,9.667,0C6.998,0,4.833,2.164,4.833,4.832v16.114C4.833,23.613,6.998,25.778,9.667,25.778"/>
</svg>
